<?xml version="1.0" encoding="iso-8859-1"?>
<!-- Generator: Adobe Illustrator 17.1.0, SVG Export Plug-In . SVG Version: 6.00 Build 0)  -->
<!DOCTYPE svg PUBLIC "-//W3C//DTD SVG 1.1//EN" "http://www.w3.org/Graphics/SVG/1.1/DTD/svg11.dtd">
<svg xmlns="http://www.w3.org/2000/svg" xmlns:xlink="http://www.w3.org/1999/xlink" version="1.1" id="Capa_1" x="0px" y="0px" viewBox="0 0 470.1 470.1" style="enable-background:new 0 0 470.1 470.1;" xml:space="preserve" width="512px" height="512px">
<g>
	<path d="M294.696,0H48.455c-7.995,0-14.5,6.505-14.5,14.5v437.896c0,7.995,6.505,14.5,14.5,14.5h246.241   c7.995,0,14.5-6.505,14.5-14.5V14.5C309.196,6.505,302.691,0,294.696,0z M294.196,451.896H48.955V15h245.241V451.896z" fill="#006DF0"/>
	<path d="M91.455,416.896h160.241c4.143,0,7.5-3.357,7.5-7.5v-56.472c0-4.143-3.357-7.5-7.5-7.5H91.455c-4.143,0-7.5,3.357-7.5,7.5   v56.472C83.955,413.539,87.313,416.896,91.455,416.896z M98.955,360.425h145.241v41.472H98.955V360.425z" fill="#006DF0"/>
	<path d="M91.455,318.422h160.241c4.143,0,7.5-3.357,7.5-7.5V254.45c0-4.143-3.357-7.5-7.5-7.5H91.455c-4.143,0-7.5,3.357-7.5,7.5   v56.472C83.955,315.064,87.313,318.422,91.455,318.422z M98.955,261.95h145.241v41.472H98.955V261.95z" fill="#006DF0"/>
	<path d="M91.455,219.946h160.241c4.143,0,7.5-3.357,7.5-7.5v-56.472c0-4.143-3.357-7.5-7.5-7.5H91.455c-4.143,0-7.5,3.357-7.5,7.5   v56.472C83.955,216.589,87.313,219.946,91.455,219.946z M98.955,163.475h145.241v41.472H98.955V163.475z" fill="#006DF0"/>
	<path d="M91.455,121.472h160.241c4.143,0,7.5-3.357,7.5-7.5V57.5c0-4.143-3.357-7.5-7.5-7.5H91.455c-4.143,0-7.5,3.357-7.5,7.5   v56.472C83.955,118.114,87.313,121.472,91.455,121.472z M98.955,65h145.241v41.472H98.955V65z" fill="#006DF0"/>
	<path d="M414.732,5.1h-59.124c-11.807,0-21.412,9.605-21.412,21.412v49.396c0,4.143,3.357,7.5,7.5,7.5h2.342l0.068,345.593   c0,22.662,18.438,41.099,41.1,41.099c22.661,0,41.098-18.437,41.098-41.101l-0.068-345.591h2.409c4.143,0,7.5-3.357,7.5-7.5V26.512   C436.145,14.705,426.539,5.1,414.732,5.1z M349.196,26.512c0-3.535,2.876-6.412,6.412-6.412h59.124   c3.536,0,6.412,2.877,6.412,6.412v41.896h-71.948V26.512z M411.304,429.001c0,14.391-11.707,26.099-26.098,26.099   c-14.392,0-26.1-11.708-26.1-26.101l-0.068-345.591h52.197L411.304,429.001z" fill="#006DF0"/>
	<path d="M375.282,180.166h19.776c4.143,0,7.5-3.357,7.5-7.5s-3.357-7.5-7.5-7.5h-19.776c-4.143,0-7.5,3.357-7.5,7.5   S371.14,180.166,375.282,180.166z" fill="#006DF0"/>
</g>
<g>
</g>
<g>
</g>
<g>
</g>
<g>
</g>
<g>
</g>
<g>
</g>
<g>
</g>
<g>
</g>
<g>
</g>
<g>
</g>
<g>
</g>
<g>
</g>
<g>
</g>
<g>
</g>
<g>
</g>
</svg>
